<svg width="18" height="18" viewBox="0 0 18 18" fill="none" xmlns="http://www.w3.org/2000/svg">
<path d="M3 5.25H15H3ZM12 5.25V3C12 2.80109 11.921 2.61032 11.7803 2.46967C11.6397 2.32902 11.4489 2.25 11.25 2.25H6.75C6.55109 2.25 6.36032 2.32902 6.21967 2.46967C6.07902 2.61032 6 2.80109 6 3V5.25H12ZM13.5 15V5.25H4.5V15C4.5 15.1989 4.57902 15.3897 4.71967 15.5303C4.86032 15.671 5.05109 15.75 5.25 15.75H12.75C12.9489 15.75 13.1397 15.671 13.2803 15.5303C13.421 15.3897 13.5 15.1989 13.5 15Z" stroke="black" stroke-width="2" stroke-linecap="round" stroke-linejoin="round"/>
</svg>
