<svg width="17" height="17" viewBox="0 0 17 17" fill="none" xmlns="http://www.w3.org/2000/svg">
<path d="M7.41625 6.58043L10.4196 9.58376L5.12833 14.875H2.125V11.8717L7.41625 6.58043ZM14.4571 4.54043L12.4596 2.54293C12.3937 2.47654 12.3154 2.42384 12.2291 2.38788C12.1428 2.35192 12.0502 2.3334 11.9567 2.3334C11.8632 2.3334 11.7706 2.35192 11.6843 2.38788C11.5979 2.42384 11.5196 2.47654 11.4537 2.54293L9.41375 4.58293L12.4171 7.58626L14.4571 5.54626C14.5235 5.48041 14.5762 5.40207 14.6121 5.31575C14.6481 5.22944 14.6666 5.13685 14.6666 5.04334C14.6666 4.94984 14.6481 4.85725 14.6121 4.77094C14.5762 4.68462 14.5235 4.60628 14.4571 4.54043V4.54043Z" stroke="black" stroke-width="2" stroke-linecap="round" stroke-linejoin="round"/>
</svg>
